# xmcd
#
# Track frame offsets:
#	150
#	21127
#	40300
#	58807
#	79190
#	100002
#	119295
#	136790
#	159415
#	178962
#	195845
#	212927
#	233255
#	253927
#	275195
#
# Disc length: 3911 seconds
#
# Revision: 1
# Processed by: cddbd v1.5.1PL0 Copyright (c) Steve Scherf et al.
# Submitted via: audiograbber 1.81.02
#
DISCID=ce0f450f
DTITLE=Smokie - The World And Elsewhere
DYEAR=1995
DGENRE=Country
TTITLE0=Last Train
TTITLE1=Have You Ever Seen The Rain
TTITLE2=Till Hell Freezes Over
TTITLE3=Rock 'n' Roll Rodeo
TTITLE4=Love Like A Rocket
TTITLE5=I Can Be A Heartbreaker Too
TTITLE6=Coming Home Tonight
TTITLE7=Love Can Change Your Heart
TTITLE8=Till You Follow Me
TTITLE9=Rose-A-Lee
TTITLE10=When The Lightening Strikes
TTITLE11=Steppin' On Seashells
TTITLE12=Where Sorry's Not Enough
TTITLE13=Tell Me Why
TTITLE14=Will You Still Love Me Tomorrow
EXTD=
EXTT0=
EXTT1=
EXTT2=
EXTT3=
EXTT4=
EXTT5=
EXTT6=
EXTT7=
EXTT8=
EXTT9=
EXTT10=
EXTT11=
EXTT12=
EXTT13=
EXTT14=
PLAYORDER=
